<svg width="46" height="44" viewBox="0 0 46 44" fill="none" xmlns="http://www.w3.org/2000/svg">
<g id="Group">
<path id="Stroke 33" d="M37.6262 36.2743L36.262 34.8117L36.2583 34.8152L37.6262 36.2743ZM8.29693 36.2743L9.66686 34.8171L9.6591 34.8099L8.29693 36.2743ZM2.15339 19.6132L4.13741 19.8656L4.13801 19.8608L2.15339 19.6132ZM43.7591 19.6246L41.7742 19.8695L41.7752 19.8773L43.7591 19.6246ZM43.759 19.6672L44.648 21.4588C45.4089 21.0813 45.8483 20.2644 45.7439 19.4214L43.759 19.6672ZM2.15332 19.6672L0.165674 19.4453C0.0725067 20.2796 0.510337 21.0834 1.26186 21.4576L2.15332 19.6672ZM37.6261 36.2743L38.9912 37.736C39.4753 37.2838 39.7042 36.6213 39.6023 35.9667L37.6261 36.2743ZM8.29688 36.2743L6.32015 35.9701C6.21972 36.6227 6.44783 37.2828 6.92974 37.7341L8.29688 36.2743ZM41.9138 22.0029C41.9138 27.0008 39.7657 31.5438 36.262 34.8117L38.9903 37.7368C43.2514 33.7625 45.9138 28.1814 45.9138 22.0029H41.9138ZM36.2583 34.8152C32.8405 38.0194 28.1547 40 22.9563 40V44C29.1854 44 34.8455 41.6226 38.994 37.7334L36.2583 34.8152ZM22.9563 40C17.7674 40 13.0724 38.0187 9.66684 34.8171L6.92701 37.7315C11.0667 41.6233 16.7388 44 22.9563 44V40ZM9.6591 34.8099C6.14677 31.5428 4 27.0008 4 22.0029H0C0 28.1814 2.66122 33.7635 6.93476 37.7387L9.6591 34.8099ZM4 22.0029C4 21.2807 4.04827 20.5664 4.13741 19.8656L0.169373 19.3609C0.0601579 20.2196 0 21.1026 0 22.0029H4ZM4.13801 19.8608C5.24217 11.0076 13.183 4.00588 22.9563 4.00588V0.00588381C11.2866 0.00588381 1.53737 8.39217 0.168766 19.3657L4.13801 19.8608ZM22.9563 4.00588C32.742 4.00588 40.6808 11.0077 41.7742 19.8695L45.7441 19.3797C44.3885 8.39206 34.6371 0.00588381 22.9563 0.00588381V4.00588ZM41.7752 19.8773C41.8647 20.58 41.9138 21.2838 41.9138 22.0029H45.9138C45.9138 21.0995 45.8519 20.2262 45.7431 19.3718L41.7752 19.8773ZM42.8701 17.8757C37.3416 20.6188 30.9281 22.2689 23.3588 22.2689V26.2689C31.538 26.2689 38.5608 24.4792 44.648 21.4588L42.8701 17.8757ZM23.3588 22.2689C15.7509 22.2689 8.5407 20.6135 3.04478 17.8769L1.26186 21.4576C7.38163 24.5048 15.2154 26.2689 23.3588 26.2689V22.2689ZM4.14097 19.8892C5.15386 10.8183 13.6655 3.77778 23.3116 4.00534L23.4059 0.00644767C11.8858 -0.265313 1.4301 8.12179 0.165674 19.4453L4.14097 19.8892ZM23.3116 4.00534C32.9802 4.23342 40.6724 11.0163 41.7742 19.9131L45.7439 19.4214C44.3799 8.4079 34.9036 0.277679 23.4059 0.00644767L23.3116 4.00534ZM36.261 34.8126C32.8134 38.0324 28.1908 40 22.9562 40V44C29.2281 44 34.8202 41.6313 38.9912 37.736L36.261 34.8126ZM22.9562 40C17.7312 40 13.0993 38.0318 9.66401 34.8145L6.92974 37.7341C11.0918 41.632 16.696 44 22.9562 44V40ZM10.2736 36.5785C11.1586 30.8282 16.7153 26.2689 23.3588 26.2689V22.2689C15.0074 22.2689 7.54421 28.0165 6.32015 35.9701L10.2736 36.5785ZM23.3588 26.2689C29.8636 26.2689 34.7342 30.6986 35.6499 36.5819L39.6023 35.9667C38.385 28.1462 31.8463 22.2689 23.3588 22.2689V26.2689Z" fill="white"/>
</g>
</svg>
