<svg width="137" height="50" viewBox="0 0 137 50" fill="none" xmlns="http://www.w3.org/2000/svg">
<path d="M5.98036 25.5749L2.28174 2.299H8.01838L9.82995 15.8622L12.1322 2.32774H16.6233L19.0388 15.776L20.8881 2.299H26.5492L22.8883 25.5749H17.0007L14.3966 11.5231L11.9434 25.5749H5.98036ZM30.975 25.5749V2.299H44.7126V5.80475H37.7306V11.5806H43.052V15.1438H37.7306V22.0979H44.7881V25.5749H30.975ZM47.5156 25.5749L53.29 2.299H60.9892L66.6881 25.5749H60.4608L59.4418 20.6611H54.9506L53.8939 25.5749H47.5156ZM55.5545 17.5864H58.8002L57.1773 8.5059L55.5545 17.5864ZM70.9068 25.5749V2.299H81.1723C83.0092 2.299 84.5188 2.5672 85.7013 3.1036C86.8837 3.62084 87.7646 4.38713 88.3431 5.40245C88.9217 6.39863 89.2112 7.61509 89.2112 9.05188C89.2112 10.8527 88.8213 12.232 88.0412 13.1898C87.2611 14.1285 86.2044 14.7798 84.871 15.1438C83.5376 15.5078 82.0404 15.6898 80.3798 15.6898H77.6624V25.5749H70.9068ZM77.6624 12.0979H79.9269C80.7572 12.0979 81.3863 11.9829 81.8139 11.753C82.2415 11.5231 82.5186 11.1783 82.6442 10.7185C82.7952 10.2588 82.8707 9.67449 82.8707 8.96567C82.8707 8.37179 82.8077 7.85455 82.682 7.41394C82.5812 6.95417 82.317 6.59018 81.8894 6.32199C81.4618 6.0538 80.7949 5.91969 79.8891 5.91969H77.6624V12.0979ZM102.356 25.9197C100.066 25.9197 98.2547 25.6132 96.9213 25.0002C95.5879 24.3871 94.6315 23.5059 94.053 22.3565C93.4744 21.207 93.1849 19.8373 93.1849 18.2473V9.59785C93.1849 7.98866 93.4744 6.61892 94.053 5.48866C94.6315 4.3584 95.5879 3.49633 96.9213 2.90245C98.2547 2.28942 100.066 1.98291 102.356 1.98291C104.671 1.98291 106.495 2.28942 107.828 2.90245C109.187 3.49633 110.156 4.3584 110.735 5.48866C111.313 6.61892 111.603 7.98866 111.603 9.59785V18.2473C111.603 19.8373 111.313 21.207 110.735 22.3565C110.156 23.5059 109.187 24.3871 107.828 25.0002C106.495 25.6132 104.671 25.9197 102.356 25.9197ZM102.356 22.2703C103.061 22.2703 103.576 22.1362 103.903 21.868C104.231 21.5998 104.444 21.2549 104.545 20.8335C104.646 20.412 104.696 19.981 104.696 19.5404V8.33348C104.696 7.87371 104.646 7.44268 104.545 7.04038C104.444 6.61892 104.231 6.27409 103.903 6.0059C103.576 5.73771 103.061 5.6036 102.356 5.6036C101.702 5.6036 101.211 5.73771 100.884 6.0059C100.557 6.27409 100.343 6.61892 100.243 7.04038C100.142 7.44268 100.092 7.87371 100.092 8.33348V19.5404C100.092 19.981 100.129 20.412 100.205 20.8335C100.306 21.2549 100.507 21.5998 100.809 21.868C101.136 22.1362 101.651 22.2703 102.356 22.2703ZM116.846 25.5749V2.299H121.602L127.867 13.5059V2.299H133.452V25.5749H128.886L122.621 13.5059V25.5749H116.846Z" fill="white"/>
<path d="M2.80493 47.7013L3.14838 32.572H7.44142L9.89458 42.1166L12.5195 32.572H16.6653L17.0088 47.7013H14.065L13.7461 37.447L11.2193 47.7013H8.69253L6.04311 37.3723L5.77326 47.7013H2.80493ZM19.011 47.7013L22.8625 32.572H27.3518L31.1788 47.7013H27.4254L26.714 44.3766H23.5739L22.8135 47.7013H19.011ZM23.9419 42.4901H26.3215L25.1194 36.3824L23.9419 42.4901ZM33.2491 47.7013V32.572H36.0702L40.486 40.4542V32.572H43.8223V47.7013H41.1238L36.708 39.3335V47.7013H33.2491ZM45.9079 47.7013L49.7594 32.572H54.2486L58.0756 47.7013H54.3222L53.6108 44.3766H50.4708L49.7103 47.7013H45.9079ZM50.8387 42.4901H53.2183L52.0163 36.3824L50.8387 42.4901ZM64.9603 47.9255C63.6194 47.9255 62.5562 47.7137 61.7712 47.2904C60.9862 46.8545 60.422 46.2444 60.0785 45.46C59.7517 44.6631 59.5879 43.7416 59.5879 42.6956V37.6338C59.5879 36.5505 59.7596 35.6166 60.103 34.8321C60.4465 34.0476 61.0435 33.4436 61.8939 33.0203C62.7608 32.597 63.93 32.3853 65.4019 32.3853C66.8247 32.3853 67.9453 32.5657 68.7627 32.9269C69.5968 33.2881 70.1939 33.7985 70.5535 34.4585C70.9136 35.1186 71.0932 35.9031 71.0932 36.812V37.6899H67.1436V36.6252C67.1436 36.2266 67.1112 35.8781 67.0455 35.5792C66.9802 35.268 66.8247 35.0252 66.5794 34.8508C66.3507 34.6763 65.9744 34.5893 65.4509 34.5893C64.9113 34.5893 64.5187 34.695 64.2734 34.9068C64.0281 35.1186 63.873 35.3924 63.8073 35.7286C63.742 36.0525 63.7092 36.4011 63.7092 36.7746V43.4801C63.7092 43.9034 63.7583 44.2832 63.8564 44.6194C63.9545 44.9557 64.1345 45.2172 64.3961 45.4039C64.6742 45.5907 65.0667 45.6841 65.5736 45.6841C66.0808 45.6841 66.4734 45.5844 66.7511 45.3853C67.0293 45.1861 67.2172 44.9183 67.3154 44.5821C67.4301 44.2335 67.4871 43.8413 67.4871 43.4054V41.799H65.5491V39.9312H71.1423V47.7013H68.4929L68.2476 46.3378C67.986 46.7985 67.5935 47.1784 67.07 47.4772C66.5469 47.7761 65.8435 47.9255 64.9603 47.9255ZM73.9778 47.7013V32.572H82.6375V34.7013H78.0255V38.7172H81.5826V40.8651H78.0255V45.6094H82.6865V47.7013H73.9778ZM84.7174 47.7013L85.0608 32.572H89.3539L91.807 42.1166L94.4319 32.572H98.5778L98.9212 47.7013H95.9774L95.6585 37.447L93.1317 47.7013H90.605L87.9556 37.3723L87.6857 47.7013H84.7174ZM101.905 47.7013V32.572H110.564V34.7013H105.952V38.7172H109.509V40.8651H105.952V45.6094H110.613V47.7013H101.905ZM112.718 47.7013V32.572H115.539L119.955 40.4542V32.572H123.291V47.7013H120.592L116.177 39.3335V47.7013H112.718ZM128.222 47.7013V34.8695H125.156V32.572H135.312V34.8695H132.294V47.7013H128.222Z" fill="white"/>
</svg>
